<?xml version="1.0" encoding="UTF-8"?>
<!DOCTYPE svg PUBLIC "-//W3C//DTD SVG 1.1//EN" "http://www.w3.org/Graphics/SVG/1.1/DTD/svg11.dtd">
<!-- Creator: CorelDRAW -->
<svg xmlns="http://www.w3.org/2000/svg" xml:space="preserve" width="8.5in" height="11in" version="1.1" style="shape-rendering:geometricPrecision; text-rendering:geometricPrecision; image-rendering:optimizeQuality; fill-rule:evenodd; clip-rule:evenodd"
viewBox="0 0 8500 11000"
 xmlns:xlink="http://www.w3.org/1999/xlink">
 <defs>
  <style type="text/css">
   <![CDATA[
    .fil0 {fill:none}
    .fil2 {fill:#FEFEFE}
    .fil7 {fill:#373435}
    .fil8 {fill:#FFF212}
    .fil3 {fill:#FFE732}
    .fil6 {fill:#925436}
    .fil1 {fill:#ED3237}
    .fil4 {fill:#63C3E5}
    .fil5 {fill:#00A859}
    .fil9 {fill:#3E4095}
   ]]>
  </style>
 </defs>
 <g id="Layer_x0020_1">
  <metadata id="CorelCorpID_0Corel-Layer"/>
  <g id="Banyuasin_x0020__x005b_koleksilogo.com_x005d_.cdr">
   <rect class="fil0" x="-3624" y="-406" width="15748" height="11811"/>
   <g>
    <path class="fil1" d="M-9 588l4259 0 4259 0 0 5642c41,2616 -2105,3779 -4259,4182 -2154,-403 -4300,-1566 -4259,-4182l0 -5642z"/>
    <path class="fil2" d="M130 718l4120 0 4120 0 0 5493c40,2547 -2037,3679 -4120,4071 -2083,-392 -4160,-1524 -4120,-4071l0 -5493z"/>
    <path class="fil1" d="M8042 2256l0 3898c36,2344 -1875,3387 -3792,3747 -1917,-360 -3828,-1403 -3791,-3747l0 -3898 7583 0z"/>
    <path class="fil3" d="M7959 2334l0 3819c36,2295 -1833,3316 -3709,3669 -1876,-353 -3745,-1374 -3709,-3669l0 -3819 7418 0z"/>
    <polygon class="fil4" points="2176,5878 541,5878 541,2334 2176,2334 "/>
    <polygon class="fil5" points="7959,2334 7959,5878 6324,5878 6324,2334 "/>
    <path class="fil2" d="M6218 9134c-593,339 -1280,559 -1968,688 -729,-137 -1458,-375 -2074,-750l0 0c-56,-34 -111,-70 -165,-106l165 -164 0 -6468 4148 0 0 6454 193 158c-97,67 -196,129 -299,188l0 0z"/>
    <path class="fil1" d="M536 977l477 0c79,0 140,25 183,75 42,51 64,113 64,188 0,62 -15,116 -46,161 -20,30 -50,53 -89,70 60,19 103,50 131,94 28,45 42,101 42,168 0,55 -10,104 -30,148 -20,44 -47,78 -81,104 -22,16 -54,27 -97,34 -58,10 -96,15 -114,15l-440 0 0 -1057zm257 414l0 0 111 0c39,0 67,-8 83,-26 15,-18 23,-43 23,-76 0,-31 -8,-55 -23,-72 -16,-18 -43,-26 -82,-26l-112 0 0 200zm0 416l0 0 130 0c44,0 75,-10 93,-30 18,-20 27,-47 27,-81 0,-31 -9,-56 -27,-75 -18,-19 -49,-28 -94,-28l-129 0 0 214zm1126 52l0 0 -290 0 -40 175 -261 0 310 -1057 278 0 310 1057 -267 0 -40 -175zm-54 -228l0 0 -91 -380 -90 380 181 0zm444 -654l0 0 238 0 311 585 0 -585 240 0 0 1057 -240 0 -309 -581 0 581 -240 0 0 -1057zm875 0l0 0 283 0 166 357 166 -357 282 0 -321 614 0 443 -255 0 0 -443 -321 -614zm1515 0l0 0 255 0 0 630c0,63 -8,121 -23,177 -15,55 -39,104 -72,146 -32,41 -66,70 -102,87 -49,24 -109,36 -178,36 -40,0 -84,-4 -131,-11 -48,-7 -87,-22 -119,-43 -32,-21 -61,-52 -88,-91 -26,-40 -44,-80 -54,-122 -16,-67 -24,-127 -24,-179l0 -630 255 0 0 645c0,58 12,103 37,135 25,33 59,49 104,49 43,0 78,-16 103,-48 25,-32 37,-77 37,-136l0 -645zm891 882l0 0 -290 0 -40 175 -260 0 309 -1057 278 0 310 1057 -266 0 -41 -175zm-53 -228l0 0 -91 -380 -91 380 182 0zm397 53l0 0 243 -19c5,50 16,89 32,115 26,43 64,64 112,64 37,0 65,-11 84,-33 20,-22 30,-47 30,-76 0,-27 -9,-52 -28,-73 -19,-22 -62,-42 -131,-62 -112,-32 -191,-74 -239,-128 -48,-53 -72,-121 -72,-204 0,-54 13,-106 37,-154 25,-48 62,-86 111,-114 49,-28 117,-41 203,-41 105,0 185,25 241,75 55,50 88,130 98,240l-240 18c-6,-48 -20,-82 -40,-104 -20,-22 -49,-32 -85,-32 -29,0 -52,7 -67,24 -15,16 -22,35 -22,59 0,16 6,31 18,45 12,14 41,27 86,39 111,31 191,62 239,93 48,32 84,71 105,117 22,47 33,99 33,157 0,68 -14,130 -44,187 -29,58 -70,101 -122,131 -53,29 -119,44 -199,44 -140,0 -237,-35 -291,-104 -54,-69 -85,-157 -92,-264zm887 -707l0 0 255 0 0 1057 -255 0 0 -1057zm439 0l0 0 238 0 311 585 0 -585 240 0 0 1057 -240 0 -309 -581 0 581 -240 0 0 -1057z"/>
    <path class="fil4" d="M2912 7638l545 -541c22,3 45,6 68,9l-463 587c-52,-17 -102,-36 -150,-55z"/>
    <path class="fil4" d="M2041 8987c-97,-64 -192,-132 -282,-204l782 -777c68,31 137,59 207,85l-707 896z"/>
    <path class="fil4" d="M3159 7723l429 -608c46,5 93,11 140,16l-366 642c-69,-15 -137,-32 -203,-50z"/>
    <path class="fil4" d="M2516 9261c-109,-55 -215,-113 -318,-175l671 -952c81,27 163,51 247,73l-600 1054z"/>
    <path class="fil4" d="M3494 7799l318 -661c29,3 59,5 88,7l-224 682c-62,-8 -122,-17 -182,-28z"/>
    <path class="fil4" d="M3118 9518c-128,-46 -254,-97 -377,-152l538 -1120c80,18 161,33 243,46l-404 1226z"/>
    <path class="fil4" d="M3820 7842l172 -691c34,2 68,3 102,4l-84 701c-64,-3 -127,-8 -190,-14z"/>
    <path class="fil4" d="M3784 9721c-135,-34 -269,-72 -401,-113l320 -1291c82,10 165,17 248,23l-167 1381z"/>
    <path class="fil4" d="M4153 7861l44 -703c37,0 73,0 110,0l44 703c-66,2 -132,2 -198,0z"/>
    <path class="fil4" d="M4471 9777c-75,16 -149,31 -224,45 -71,-13 -143,-28 -214,-43l90 -1431c86,2 172,2 258,-1l90 1430z"/>
    <path class="fil4" d="M4494 7856l-84 -701c34,-1 68,-2 102,-4l172 691c-63,6 -126,11 -190,14z"/>
    <path class="fil4" d="M5121 9605c-133,42 -267,79 -401,113l-167 -1378c83,-6 166,-13 248,-23l320 1288z"/>
    <path class="fil4" d="M4828 7826l-224 -681c29,-2 59,-4 88,-7l317 660c-59,11 -119,20 -181,28z"/>
    <path class="fil4" d="M5762 9363c-123,55 -249,106 -377,152l-404 -1224c82,-13 163,-28 243,-46l538 1118z"/>
    <path class="fil4" d="M5141 7773l-365 -642c47,-5 93,-11 140,-16l428 607c-65,19 -133,36 -203,51z"/>
    <path class="fil4" d="M6303 9082c-103,62 -209,121 -317,175l-598 -1051c83,-22 165,-46 246,-73l669 949z"/>
    <path class="fil4" d="M5441 7692l-462 -586c23,-3 46,-6 68,-9l544 539c-48,20 -98,39 -150,56z"/>
    <path class="fil4" d="M5474 6528c-560,-77 -850,136 -1224,136 -374,0 -664,-213 -1224,-136 8,-61 68,-86 149,-97 491,-44 660,135 1075,151 415,-16 584,-195 1075,-151 81,11 141,36 149,97z"/>
    <path class="fil4" d="M6741 8780c-90,71 -184,139 -281,204l-705 -894c70,-26 139,-55 207,-85l779 775z"/>
    <path class="fil6" d="M3442 5497c-9,58 19,191 17,226 -1,18 14,218 -17,280 -31,61 -18,111 -83,172 -22,21 -149,99 -123,99 109,0 250,-4 351,-21 61,-8 118,21 206,21 136,0 -5,-91 -57,-140 -97,-90 -31,-386 -31,-510 0,-20 4,-53 4,-78 0,-41 -87,-49 -100,-94 -9,-29 -36,-21 -66,-21 -48,0 -132,-20 -132,37 0,8 31,29 31,29z"/>
    <path class="fil7" d="M2048 6877l553 672c36,-27 102,-14 201,39 746,366 2150,366 2896,0 99,-53 165,-66 201,-39l553 -672 5 336c126,-254 32,-407 -95,-615 29,14 60,29 89,44 -3,-116 84,-184 200,-133 21,-59 76,-69 122,-51 2,-152 -84,-260 -191,-394 29,10 58,20 86,30 -16,-106 55,-177 168,-142 10,-48 47,-65 85,-63 -21,-129 -110,-215 -219,-322 28,6 56,12 83,19 -27,-95 29,-167 135,-147 3,-42 31,-62 64,-66 -36,-112 -126,-180 -236,-264 26,2 52,5 77,8 -36,-83 6,-154 105,-147 -3,-40 23,-62 53,-67 -46,-99 -136,-151 -247,-214 24,-1 47,-2 71,-2 -44,-70 -15,-139 75,-144 -9,-42 20,-65 54,-70 -55,-88 -144,-124 -256,-169 21,-4 42,-7 63,-10 -48,-58 -32,-123 47,-138 -17,-47 25,-74 65,-72 0,0 0,0 0,0 -63,-84 -152,-105 -265,-131 18,-6 36,-12 55,-18 -52,-45 -48,-105 21,-129 -23,-39 11,-69 47,-73 2,-58 49,-93 97,-80 -38,-10 -74,9 -90,45 -67,-54 -147,-59 -247,-66 15,-8 31,-16 46,-23 -54,-33 -61,-87 -3,-120 -27,-31 -2,-63 29,-71 -10,-74 62,-118 130,-61 24,-29 47,-14 60,-3 67,-42 121,-7 149,64 15,-9 30,-17 43,-25 -57,97 -100,167 -107,264 -3,-2 -6,-3 -9,-4 19,6 38,18 55,38 32,-27 54,-7 66,9 81,-34 133,14 148,95 18,-6 36,-12 52,-18 -73,84 -130,147 -161,234 22,8 43,25 59,53 40,-25 60,1 71,19 95,-23 143,38 144,130 21,-5 41,-9 60,-12 -88,73 -157,130 -207,207 25,11 47,34 62,70 48,-21 65,10 74,32 107,-12 150,62 135,162 24,-1 47,-3 68,-4 -103,64 -185,113 -250,185 25,15 46,43 56,83 56,-16 70,20 76,45 119,3 154,89 123,196 26,2 51,4 75,5 -120,55 -216,97 -298,164 25,20 42,52 47,97 63,-10 74,31 76,59 130,17 155,115 105,229 28,5 55,10 81,15 -142,45 -254,79 -354,144 22,25 37,61 36,109 69,-3 75,43 74,74 137,35 151,144 81,261 30,8 58,18 85,26 -170,33 -302,57 -426,123 21,30 31,72 23,124 76,5 75,55 70,88 143,55 142,174 50,291 31,13 61,26 89,39 -298,22 -491,33 -731,236l302 -27 -594 768c-36,49 -77,52 -109,1l-41 -55c-1075,535 -2591,535 -3666,0l-41 55c-32,51 -73,48 -109,-1l-594 -768 304 27c-46,-64 -90,-132 -130,-202 -516,-2 -452,-302 -639,-556 56,55 127,88 202,120 -181,-107 -165,-308 -280,-494 115,135 322,153 457,323 -13,-43 -25,-86 -36,-129 -440,-74 -341,-327 -465,-573 100,139 303,170 414,353 -11,-52 -20,-105 -29,-159 -415,-102 -298,-333 -394,-575 86,145 286,187 369,388 -8,-65 -14,-130 -18,-195 -390,-129 -256,-337 -324,-574 70,149 266,203 315,419 -3,-86 -3,-174 -2,-261 -1,9 -3,19 -4,28 -353,-154 -207,-337 -247,-564 51,147 234,214 254,428 4,-90 10,-181 18,-271 -1,6 -3,12 -5,18 -312,-177 -157,-334 -170,-549 30,133 177,212 191,390 9,-77 20,-154 33,-230 -266,-196 -105,-327 -92,-528 11,113 112,195 130,327 6,-29 13,-58 20,-88 -153,-432 105,-466 201,-819 -78,367 171,549 -183,848 -5,29 -10,57 -15,85 77,-129 219,-157 287,-259 -83,181 -7,361 -312,428 -6,38 -10,76 -15,113 76,-114 203,-158 260,-262 -71,198 25,382 -281,480 -3,33 -5,65 -7,98 73,-116 195,-173 244,-283 -58,216 59,404 -254,532 -1,33 -1,66 -1,99 67,-130 193,-200 236,-321 -31,170 35,318 -51,447 27,-38 50,-77 62,-122 -27,254 143,449 -205,644 7,53 15,105 24,157 31,-197 194,-301 225,-462 -8,273 192,468 -176,702 18,74 37,147 59,217 -16,-251 178,-378 200,-567 14,290 243,482 -136,758 31,81 65,160 102,236 -50,-276 154,-426 161,-631 38,302 290,486 -71,798 44,76 92,147 144,214l5 -360zm-376 -181l0 0c-64,-6 -117,-16 -163,-30 74,34 147,75 210,142 -16,-37 -32,-74 -47,-112zm-189 -1146l0 0c35,-95 99,-164 153,-234 -33,41 -84,79 -160,116 2,40 4,79 7,118z"/>
    <path class="fil3" d="M1963 6372c28,221 216,355 -68,587 -11,-73 51,-107 29,-190 -13,33 -32,52 -54,59 -66,-201 88,-306 93,-456zm-264 -2889l0 0c-62,243 -242,261 -117,573 241,-203 69,-325 117,-573zm-294 481l0 0c10,97 115,160 80,294 -15,-4 -28,-16 -38,-37 -11,55 31,75 27,123 -195,-141 -78,-235 -69,-380zm-118 372l0 0c9,154 -102,267 122,394 -2,-51 -49,-68 -45,-127 14,21 29,32 45,35 20,-146 -99,-200 -122,-302zm-84 377l0 0c37,106 170,151 167,307 -18,0 -35,-11 -52,-31 3,63 54,75 62,129 -253,-111 -148,-242 -177,-405zm-48 381l0 0c49,170 -47,319 233,412 -15,-57 -70,-65 -80,-131 20,20 39,29 58,28 -14,-165 -160,-200 -211,-309zm-12 383l0 0c65,110 223,133 255,307 -19,3 -41,-5 -64,-24 17,69 77,73 98,131 -306,-72 -220,-239 -289,-414zm23 381l0 0c90,180 16,364 347,413 -28,-60 -92,-58 -117,-130 26,18 50,25 71,20 -52,-181 -222,-192 -301,-303zm58 379l0 0c94,110 275,108 346,295 -21,7 -47,2 -77,-15 34,73 101,66 137,128 -355,-26 -294,-226 -406,-408zm556 -2194l0 0c-62,133 -2,266 -243,311 19,-45 66,-45 82,-98 -19,14 -36,19 -51,16 33,-134 156,-146 212,-229zm-63 290l0 0c-51,93 -182,116 -205,262 17,2 35,-6 53,-22 -12,58 -62,62 -78,111 253,-67 177,-204 230,-351zm-40 304l0 0c-43,162 50,302 -214,393 13,-53 66,-62 74,-125 -19,19 -37,28 -55,28 11,-157 149,-193 195,-296zm-13 320l0 0c-40,113 -184,161 -182,328 19,0 38,-11 56,-33 -4,68 -59,81 -68,139 273,-117 162,-259 194,-434zm17 334l0 0c-19,188 110,330 -169,474 5,-62 62,-80 60,-152 -17,25 -36,38 -56,40 -16,-178 132,-239 165,-362zm53 349l0 0c-26,132 -177,207 -146,393 21,-3 40,-18 56,-45 8,76 -51,98 -51,164 283,-172 135,-313 141,-512zm92 361l0 0c-16,141 -170,231 -122,425 22,-5 40,-22 56,-52 14,79 -47,108 -42,177 286,-201 118,-340 108,-550zm-509 609l0 0c135,183 88,399 464,398 -43,-61 -113,-49 -155,-124 33,16 61,19 83,10 -92,-192 -282,-175 -392,-284z"/>
    <path class="fil6" d="M5905 6498c-46,333 -772,599 -1655,599 -883,0 -1609,-266 -1655,-599 113,221 813,392 1655,392 842,0 1542,-171 1655,-392z"/>
    <path class="fil4" d="M5388 6414c-557,-71 -764,139 -1138,139 -374,0 -581,-210 -1138,-139 -1,-64 41,-111 128,-125 527,-18 595,141 1010,157 415,-16 483,-175 1010,-157 87,14 129,61 128,125z"/>
    <path class="fil8" d="M5731 6464c3,8 4,17 4,26 0,192 -667,349 -1485,349 -818,0 -1485,-157 -1485,-349 0,-9 1,-18 4,-26 56,180 700,323 1481,323 781,0 1425,-143 1481,-323z"/>
    <path class="fil2" d="M2106 7032l455 560 -284 229c-13,53 -3,91 11,127l-494 -650 307 32 5 -298z"/>
    <path class="fil2" d="M6394 7032l-455 560 284 229c13,53 3,91 -11,127l494 -650 -307 32 -5 -298z"/>
    <path class="fil2" d="M2666 7580l-334 260c1010,612 2831,612 3840,0l-334 -260c-882,445 -2290,445 -3172,0z"/>
    <path class="fil1" d="M2603 7820l42 12c-9,32 -1,54 23,64 12,5 23,6 33,3 10,-4 17,-10 20,-19 3,-6 4,-11 3,-16 -1,-5 -3,-9 -7,-14 -4,-4 -14,-14 -31,-28 -15,-12 -25,-23 -31,-32 -5,-10 -8,-20 -8,-32 -1,-12 1,-23 6,-34 6,-14 14,-24 24,-32 11,-8 23,-13 36,-14 12,0 27,2 42,9 24,10 39,24 47,42 8,18 7,39 -2,63l-41 -15c3,-14 3,-24 0,-32 -4,-8 -11,-14 -22,-18 -11,-5 -20,-6 -28,-4 -8,2 -13,6 -16,13 -3,7 -2,13 1,20 3,7 14,17 30,30 18,15 30,27 36,37 7,10 10,21 10,34 1,12 -2,25 -8,39 -9,21 -23,36 -42,45 -19,9 -43,7 -71,-4 -48,-21 -64,-60 -46,-117zm161 161l0 0 156 54 14 -42 -114 -39 23 -68 103 36 14 -42 -102 -35 19 -55 110 38 15 -42 -152 -52 -86 247zm272 -189l0 0 76 24c19,5 33,12 42,19 8,7 15,17 20,30 5,13 8,28 7,45 0,18 -4,39 -11,63 -7,22 -15,40 -25,54 -10,15 -20,25 -31,32 -10,7 -21,12 -33,13 -13,2 -27,0 -44,-5l-79 -24 78 -251zm28 55l0 0 -51 166 31 10c14,4 24,6 31,5 7,-1 13,-3 18,-7 5,-4 11,-11 17,-21 6,-10 12,-24 17,-42 6,-19 9,-34 10,-45 0,-12 -1,-21 -4,-29 -4,-8 -9,-14 -17,-18 -5,-4 -16,-8 -33,-13l-19 -6zm161 1l0 0 -31 137c-9,38 -13,65 -10,80 2,16 8,29 19,39 10,11 27,19 49,24 21,5 39,4 54,-3 15,-6 26,-17 34,-31 7,-14 14,-39 22,-73l32 -134 -43 -10 -33 141c-6,26 -11,42 -15,49 -4,7 -10,12 -17,15 -7,3 -16,4 -25,1 -12,-2 -21,-7 -26,-15 -6,-8 -8,-18 -8,-29 1,-7 4,-21 9,-43l32 -138 -43 -10zm157 306l0 0 41 -257 44 7 -34 213 107 17 -7 43 -151 -23zm374 51l0 0 -47 -5 -11 -62 -86 -10 -25 57 -46 -6 116 -250 46 6 53 270zm-67 -112l0 0 -17 -100 -41 93 58 7zm89 117l0 0 18 -261 43 3 76 180 12 -174 41 3 -19 261 -43 -3 -75 -176 -12 170 -41 -3zm322 -75l0 0 2 -44 94 3 -4 104c-10,11 -23,20 -41,27 -18,8 -35,11 -53,11 -21,-1 -40,-7 -56,-18 -16,-11 -28,-27 -37,-48 -9,-21 -13,-46 -12,-74 1,-29 7,-53 17,-73 11,-20 24,-35 39,-45 16,-9 35,-14 56,-13 26,1 47,8 62,22 15,13 24,33 28,58l-44 8c-3,-13 -8,-24 -17,-31 -8,-8 -18,-12 -30,-12 -19,-1 -34,6 -46,20 -12,14 -19,36 -20,65 -1,31 5,56 16,73 11,14 25,22 43,22 9,1 18,-1 27,-5 9,-3 18,-9 25,-15l1 -33 -50 -2zm202 14l0 0 42 -7c6,33 22,50 49,49 13,-1 23,-5 31,-12 7,-7 11,-15 10,-26 0,-6 -1,-11 -4,-15 -3,-4 -7,-7 -13,-9 -5,-3 -18,-7 -39,-13 -19,-5 -33,-10 -42,-16 -9,-7 -16,-15 -21,-25 -6,-11 -9,-22 -9,-35 -1,-14 2,-27 8,-38 6,-12 15,-21 26,-27 12,-6 26,-10 43,-10 25,-1 45,5 60,18 15,13 23,33 25,58l-44 4c-2,-14 -7,-24 -13,-29 -7,-6 -16,-8 -28,-8 -12,1 -21,3 -27,9 -6,5 -9,11 -9,18 1,7 4,13 10,18 6,5 19,9 40,15 22,5 38,11 48,18 10,6 18,15 24,26 5,11 8,24 9,40 1,22 -6,42 -19,58 -14,16 -36,24 -66,25 -53,2 -83,-27 -91,-86zm215 76l0 0 -18 -261 161 -11 3 44 -117 8 4 58 108 -7 4 44 -109 7 5 71 121 -8 3 44 -165 11zm251 -23l0 0 43 -3 -19 -217 64 -6 -4 -44 -171 15 4 44 64 -5 19 216zm94 -274l0 0 43 -7 23 140c3,22 6,36 8,43 4,11 10,19 18,24 8,5 18,7 30,5 10,-2 18,-5 23,-10 6,-6 9,-13 10,-21 1,-8 0,-25 -4,-51l-23 -143 43 -7 22 136c5,35 7,60 6,76 -1,16 -8,30 -19,42 -12,12 -28,19 -50,22 -22,4 -40,3 -54,-3 -14,-6 -25,-16 -33,-30 -8,-13 -15,-39 -21,-78l-22 -138zm197 -27l0 0 59 255 80 -18c17,-4 31,-10 41,-17 10,-8 17,-17 23,-28 5,-11 9,-26 10,-43 1,-18 -1,-37 -6,-59 -6,-25 -13,-45 -21,-60 -9,-16 -19,-27 -30,-36 -10,-8 -21,-13 -32,-16 -11,-2 -27,0 -46,4l-78 18zm52 33l0 0 20 -4c17,-4 28,-6 35,-6 8,0 16,3 23,8 7,5 13,13 18,23 5,10 10,25 15,44 4,18 6,33 6,45 0,11 -1,20 -4,26 -3,6 -7,11 -13,15 -5,4 -15,8 -28,11l-32 7 -40 -169zm153 -83l0 0 42 -11 37 137c6,21 10,35 13,41 5,11 12,18 20,23 9,4 19,4 31,1 9,-2 17,-7 22,-13 5,-5 7,-13 8,-21 0,-8 -4,-25 -10,-50l-38 -140 42 -11 36 133c9,34 14,59 14,75 1,16 -4,30 -14,43 -11,13 -26,22 -47,28 -22,5 -40,6 -55,2 -14,-5 -26,-14 -35,-26 -9,-13 -19,-38 -29,-76l-37 -135zm280 197l0 0 38 -14 -56 -161 139 133 42 -14 -86 -248 -39 14 57 165 -141 -137 -40 14 86 248zm261 -199l0 0 -17 -41 87 -36 41 96c-5,14 -13,28 -26,42 -13,14 -28,24 -44,31 -19,9 -39,11 -58,8 -19,-3 -37,-13 -54,-28 -17,-16 -31,-36 -42,-62 -12,-27 -17,-51 -16,-74 1,-22 6,-41 16,-57 11,-15 26,-27 46,-35 23,-10 45,-12 64,-6 20,6 37,20 51,41l-36 26c-9,-11 -18,-18 -29,-22 -11,-3 -22,-2 -33,2 -17,8 -28,20 -33,38 -5,17 -1,40 10,67 13,29 28,49 46,59 15,9 31,10 48,3 8,-4 15,-9 22,-16 7,-7 13,-16 16,-25l-13 -30 -46 19z"/>
    <path class="fil7" d="M6419 6652c151,217 174,365 38,609l0 6 25 -2c211,-194 413,-258 695,-251 -115,-49 -231,-85 -346,-101l22 -216 -195 163c-21,-76 -113,-144 -239,-208z"/>
    <path class="fil7" d="M6761 5597c113,99 174,184 185,297 9,3 18,7 27,12 54,-57 127,-67 177,-36 87,-59 188,-96 311,-122 -105,-18 -208,-25 -306,-16 -10,-61 -19,-121 -29,-181 -41,57 -83,113 -124,170 -34,-58 -125,-96 -241,-124z"/>
    <path class="fil2" d="M6826 4692c-42,-69 -13,-130 71,-129 -7,-58 40,-81 76,-65 28,-93 134,-110 179,7 32,-25 61,3 70,29 112,-14 142,61 124,145 -61,5 -128,14 -199,35 -24,-55 -49,-110 -73,-164 -24,60 -47,120 -71,180 -28,-31 -98,-38 -177,-38z"/>
    <path class="fil7" d="M6730 4308c115,39 184,83 226,165 3,0 6,1 8,1 21,-54 68,-80 113,-72 41,-70 101,-127 183,-182 -78,17 -151,40 -216,73 -25,-39 -51,-78 -76,-117 -11,50 -22,101 -33,152 -41,-31 -115,-32 -205,-20z"/>
    <path class="fil7" d="M6790 4700c113,57 181,113 215,201 8,1 17,2 25,5 31,-55 86,-78 133,-64 56,-65 128,-115 221,-160 -88,7 -172,21 -248,48 -21,-47 -43,-93 -64,-139 -21,53 -41,107 -62,161 -39,-40 -120,-52 -220,-52z"/>
    <path class="fil2" d="M6660 3933c-51,-44 -45,-98 21,-116 -21,-44 10,-73 43,-68 -2,-79 76,-116 142,-36 18,-26 47,-12 61,7 85,-36 127,15 135,85 -46,18 -96,40 -146,72 -34,-37 -67,-74 -100,-111 -3,52 -6,104 -9,157 -29,-18 -86,-7 -147,10z"/>
    <path class="fil7" d="M6515 3625c94,1 158,15 212,60 17,-26 47,-39 78,-33 5,-82 37,-154 95,-230 -56,32 -106,69 -146,111l-94 -71 19 126c-41,-14 -99,4 -164,37z"/>
    <path class="fil2" d="M6531 3603c-53,-32 -56,-81 -1,-108 -26,-36 -4,-66 27,-67 -16,-70 47,-115 120,-53 12,-27 41,-18 56,-4 69,-45 116,-5 135,56 -38,23 -79,51 -118,87l-108 -84 19 141c-29,-11 -78,7 -130,32z"/>
    <path class="fil7" d="M6636 3950c107,20 175,49 225,115 17,-41 54,-63 92,-59 25,-76 72,-140 142,-205 -67,25 -128,56 -181,94 -29,-32 -58,-63 -86,-94 -2,46 -4,93 -6,139 -42,-22 -108,-13 -186,10z"/>
    <path class="fil2" d="M6761 4296c-47,-57 -30,-115 45,-124 -14,-51 24,-78 60,-68 12,-86 104,-114 161,-15 25,-26 54,-5 66,17 99,-26 136,38 131,115 -54,12 -112,28 -173,55 -30,-46 -59,-92 -88,-138 -13,57 -26,114 -39,170 -29,-24 -93,-22 -163,-12z"/>
    <path class="fil2" d="M6846 5125c-35,-81 6,-144 97,-132 1,-64 56,-83 94,-60 44,-98 162,-102 194,32 38,-23 66,11 72,41 124,0 146,86 113,175 -67,-2 -142,-1 -223,11 -18,-63 -36,-126 -55,-189 -35,62 -70,125 -105,187 -25,-37 -101,-54 -187,-65z"/>
    <path class="fil2" d="M6807 5596c-26,-93 27,-156 125,-131 10,-69 73,-83 110,-53 63,-101 192,-90 207,59 45,-20 70,21 72,54 136,17 146,112 97,205 -72,-11 -154,-20 -243,-16 -11,-71 -22,-142 -32,-213 -47,63 -95,127 -142,190 -22,-44 -102,-72 -194,-95z"/>
    <path class="fil7" d="M6804 5129c114,76 179,146 203,244 11,2 22,5 32,10 43,-57 106,-74 156,-52 70,-61 155,-105 261,-140 -97,-5 -191,-1 -278,18 -16,-54 -33,-107 -49,-161 -30,56 -61,112 -92,168 -37,-49 -123,-74 -233,-87z"/>
    <path class="fil2" d="M6691 6106c-16,-104 51,-165 153,-126 22,-74 92,-82 128,-44 82,-102 220,-74 215,90 52,-16 73,31 71,67 144,35 142,140 76,235 -77,-22 -164,-41 -262,-49 -1,-78 -3,-156 -4,-234 -60,62 -120,125 -181,188 -17,-50 -100,-91 -196,-127z"/>
    <path class="fil2" d="M6474 6653c-3,-113 78,-171 183,-116 33,-78 109,-77 143,-32 103,-99 248,-52 220,124 57,-11 74,42 66,81 150,55 133,168 49,262 -80,-33 -171,-64 -275,-85l28 -253 -221 181c-12,-57 -95,-111 -193,-162z"/>
    <path class="fil7" d="M6640 6105c116,128 169,233 157,366 3,2 6,3 8,5 67,-55 148,-56 198,-15 107,-61 228,-92 374,-105 -111,-33 -221,-53 -329,-56 -2,-66 -3,-133 -5,-200 -53,57 -106,113 -159,170 -28,-67 -121,-119 -244,-165z"/>
    <path class="fil7" d="M2554 4711c-7,11 -12,23 -16,37l-30 103c-1,3 -1,6 -2,9 23,-5 47,-6 72,-3 0,0 0,0 0,0 18,3 35,7 51,14l27 -93c2,-9 4,-18 4,-26 -17,7 -37,8 -56,2 -23,-7 -41,-23 -50,-43zm64 -239l0 0 -90 0c153,-523 729,-930 1445,-1015 175,-29 359,-29 554,0 716,85 1292,492 1445,1015l-90 0 23 67c81,5 152,55 173,129l57 198c9,35 7,70 -5,102 5,12 8,24 10,37 10,67 20,134 30,201 5,29 1,58 -10,85 6,16 10,34 11,53 1,68 3,135 4,202 1,24 -4,47 -13,68 8,22 11,46 8,71 -7,67 -14,134 -21,201 -2,18 -7,35 -14,51 9,27 11,57 3,87l-47 200c-19,78 -93,133 -178,137l-39 113c-13,38 -57,58 -99,45 -42,-13 -65,-53 -52,-91l41 -120c-46,-42 -68,-103 -54,-164l48 -199c3,-12 6,-23 11,-33 -5,-20 -7,-40 -5,-62 7,-67 14,-134 21,-202 2,-16 7,-32 13,-47 -5,-15 -8,-31 -8,-47 -2,-67 -3,-135 -5,-202 0,-22 4,-43 11,-62 -4,-11 -7,-22 -8,-33 -10,-67 -21,-134 -31,-201 -4,-27 -1,-52 7,-76 -2,-7 -4,-13 -6,-19l-57 -198c-18,-64 6,-129 55,-173l-39 -112c-1,-2 -1,-4 -2,-6l-2930 0c-1,2 -1,4 -2,6l-39 112c49,44 73,109 55,173l-57 198c-2,6 -4,12 -6,19 8,24 11,49 7,76 -10,67 -21,134 -31,201 -1,11 -4,22 -8,33 7,19 11,40 11,62 -2,67 -3,135 -5,202 0,16 -3,32 -8,47 6,15 11,31 13,47 7,68 14,135 21,202 2,22 0,42 -5,62 5,10 8,21 11,33l48 199c14,61 -8,122 -54,164l41 120c13,38 -10,78 -52,91 -42,13 -86,-7 -99,-45l-39 -113c-85,-4 -159,-59 -178,-137l-47 -200c-8,-30 -6,-60 3,-87 -7,-16 -12,-33 -14,-51 -7,-67 -14,-134 -21,-201 -3,-25 0,-49 8,-71 -9,-21 -14,-44 -13,-68 1,-67 3,-134 4,-202 1,-19 5,-37 11,-53 -11,-27 -15,-56 -10,-85 10,-67 20,-134 30,-201 2,-13 5,-25 10,-37 -12,-32 -14,-67 -5,-102l57 -198c21,-74 92,-124 173,-129l23 -67zm-69 1723l0 0c9,-19 26,-35 49,-42 18,-6 37,-5 53,0 0,-9 -1,-19 -3,-29l-23 -97c-20,8 -41,13 -63,15 0,0 0,0 0,0 -20,2 -40,1 -60,-3 1,2 1,4 2,6l24 104c5,17 12,33 21,46zm-38 -383l0 0c30,-6 60,-6 88,0 -4,-33 -7,-66 -11,-100 -23,9 -48,13 -74,12 0,0 0,0 0,0 -16,0 -32,-2 -47,-6 0,1 0,2 0,2 4,34 7,68 11,102 10,-4 21,-7 33,-10zm-7 -319l0 0c26,-3 51,0 75,6 1,-34 2,-67 2,-101 -27,8 -56,10 -86,6 0,0 0,0 0,0 -12,-1 -23,-4 -34,-7 -1,34 -2,69 -3,104 0,0 0,1 0,1 15,-5 30,-8 46,-9 0,0 0,0 0,0zm22 -319l0 0c22,0 43,4 63,11 5,-33 10,-66 15,-99 0,0 0,-1 0,-1 -31,7 -65,7 -99,-1 -7,-2 -15,-5 -22,-7 -5,33 -10,65 -15,98 0,2 0,4 0,6 18,-5 38,-8 58,-7 0,0 0,0 0,0zm3420 -463l0 0c-9,20 -27,36 -50,43 -19,6 -39,5 -56,-2 0,8 2,17 4,26l27 93c16,-7 33,-11 51,-14 0,0 0,0 0,0 25,-3 49,-2 72,3 -1,-3 -1,-6 -2,-9l-30 -103c-4,-14 -9,-26 -16,-37zm5 1484l0 0c9,-13 16,-29 21,-46l24 -104c1,-2 1,-4 2,-6 -20,4 -40,5 -60,3 0,0 0,0 0,0 -22,-2 -43,-7 -63,-15l-23 97c-2,10 -3,20 -3,29 16,-5 35,-6 53,0 23,7 40,23 49,42zm38 -383l0 0c12,3 23,6 33,10 4,-34 7,-68 11,-102 0,0 0,-1 0,-2 -15,4 -31,6 -47,6 0,0 0,0 0,0 -26,1 -51,-3 -74,-12 -4,34 -7,67 -11,100 28,-6 58,-6 88,0zm7 -319l0 0c0,0 0,0 0,0 16,1 31,4 46,9 0,0 0,-1 0,-1 -1,-35 -2,-70 -3,-104 -11,3 -22,6 -34,7 0,0 0,0 0,0 -30,4 -59,2 -86,-6 0,34 1,67 2,101 24,-6 49,-9 75,-6zm-22 -319l0 0c0,0 0,0 0,0 20,-1 40,2 58,7 0,-2 0,-4 0,-6 -5,-33 -10,-65 -15,-98 -7,2 -15,5 -22,7 -34,8 -68,8 -99,1 0,0 0,1 0,1 5,33 10,66 15,99 20,-7 41,-11 63,-11z"/>
    <path class="fil5" d="M3440 5512c-50,23 -46,-34 -122,36 -7,7 -284,254 -220,72 0,-6 30,-40 33,-43 77,-72 -143,-19 -143,-51 0,-28 53,-21 63,-40 37,-72 93,-69 70,-138 -20,-62 214,16 180,-34 -13,-19 -90,-7 -90,-57 0,-37 200,16 110,-40 -10,-7 -140,-50 -90,-60 100,-19 134,16 197,-44 64,-59 250,19 297,-3 150,-69 187,151 247,235 24,31 170,141 124,163 -27,12 -50,15 -87,15 -30,0 120,72 10,91 -107,19 -234,-256 -234,-131 0,50 -37,53 -87,40 -24,-23 -79,-36 -89,-71 -9,-29 -36,-21 -66,-21 -48,0 -132,-20 -132,37 0,8 31,29 31,29 -1,4 -1,9 -2,15z"/>
    <polygon class="fil3" points="4250,2755 4343,3023 4643,3023 4400,3188 4493,3456 4250,3291 4007,3456 4100,3188 3857,3023 4157,3023 "/>
    <path class="fil1" d="M5392 3820c-317,-211 -739,-337 -1144,-335 -406,-2 -827,124 -1144,335 262,25 528,51 804,39 251,-11 335,-146 340,-344 4,198 88,333 339,344 276,12 543,-14 805,-39z"/>
    <path class="fil2" d="M4248 4425l264 0c-37,-735 -167,-487 -264,-737 -98,250 -228,2 -265,737l265 0zm-317 0l0 0 -452 0c25,-197 69,-373 208,-525 123,2 237,-5 333,-20 -62,173 -85,356 -89,545zm-509 0l0 0c34,-184 54,-359 216,-526 -103,-4 -210,-12 -317,-25 -140,161 -233,346 -286,551l387 0zm-444 0l0 0 -200 0c-9,-17 -26,-31 -47,-37 -39,-12 -81,5 -97,37l-20 0c67,-231 238,-433 468,-590l1 1c64,12 129,23 196,32 -167,186 -235,372 -301,557zm1587 0l0 0c-5,-189 -27,-372 -90,-545 96,15 210,22 333,20 139,152 183,328 208,525l-451 0zm508 0l0 0 387 0c-53,-205 -146,-390 -285,-551 -107,13 -215,21 -318,25 162,167 182,342 216,526zm444 0l0 0c-66,-185 -133,-371 -300,-557 66,-9 132,-20 196,-32l1 -1c229,157 401,359 468,590l-16 0c-16,-32 -58,-49 -97,-37 -21,6 -38,20 -47,37l-205 0z"/>
    <path class="fil3" d="M5772 4405l6 -2c31,-9 65,10 76,42l75 215c11,33 -5,67 -36,77l-5 1c-31,10 -66,-9 -77,-42l-74 -215c-12,-33 4,-67 35,-76zm6 2097l0 0 5 1c31,10 66,-9 77,-42l74 -215c12,-32 -5,-67 -36,-76l-5 -2c-31,-9 -65,10 -76,42l-75 216c-11,32 5,66 36,76zm237 -467l0 0c44,-12 82,-39 106,-75 5,21 4,43 -1,66l-45 189c-17,72 -82,123 -156,130l35 -102c3,-9 4,-19 3,-29 13,-15 24,-34 29,-57l28 -114c0,-3 1,-5 1,-8zm-183 126l0 0c-14,9 -24,21 -30,37l-32 93c-37,-39 -54,-94 -41,-148l45 -190c21,-89 116,-146 212,-126 12,2 23,6 34,10 -15,80 -135,80 -157,174l-28 115c-3,12 -4,24 -3,35zm218 -448l0 0c0,1 0,2 0,4 -5,38 -9,77 -13,116 -21,107 -124,81 -158,179 19,8 39,14 60,16 0,0 0,0 0,0 97,9 183,-58 193,-148 7,-64 13,-128 20,-192 2,-17 1,-35 -3,-51 -22,35 -57,62 -99,76zm-9 -195l0 0c-14,-6 -30,-9 -46,-11 0,0 0,0 0,0 -97,-9 -183,58 -193,148 -7,64 -13,128 -20,192 -2,14 -1,28 1,42 24,-35 60,-60 102,-72 4,-39 8,-77 12,-115 11,-106 134,-85 144,-184zm-8 -321l0 0c0,93 -133,86 -130,195 0,38 1,75 2,112 -40,15 -73,41 -94,74 -3,-10 -4,-20 -4,-30 -1,-64 -3,-127 -4,-191 -2,-91 75,-167 171,-169 0,0 0,0 0,0 21,0 41,3 59,9zm22 194l0 0c40,-16 73,-43 93,-77 3,11 5,23 5,36 2,64 3,128 5,191 2,91 -76,167 -172,169 0,0 0,0 0,0 -25,0 -50,-4 -72,-13 20,-97 147,-71 144,-191 -1,-38 -2,-77 -3,-115zm-59 -515l0 0c-22,-6 -47,-8 -71,-4 0,0 0,0 0,0 -96,13 -163,97 -150,187 10,63 19,127 29,190 1,6 2,12 4,18 19,-33 50,-60 88,-76 -6,-36 -11,-72 -17,-108 -19,-125 128,-107 117,-207zm36 194l0 0c6,37 11,72 17,108 17,115 -122,115 -130,204 26,9 55,12 84,8 0,0 0,0 0,0 96,-13 163,-97 149,-187 -9,-64 -19,-127 -28,-191 -2,-7 -3,-14 -5,-21 -19,34 -49,62 -87,79zm-81 -379l0 0c11,13 20,29 26,48l32 114c36,125 -116,114 -115,215 31,9 64,10 97,2 94,-24 150,-116 125,-205l-53 -187c-20,-68 -82,-115 -152,-123l37 108c3,9 4,19 3,28zm-189 -84l0 0c-41,41 -58,99 -42,157l53 187c1,2 1,3 2,5 17,-33 46,-60 81,-78l-29 -102c-3,-11 -5,-23 -5,-34 -11,-8 -21,-19 -25,-33l-35 -102z"/>
    <path class="fil3" d="M2728 4405l-6 -2c-31,-9 -65,10 -76,42l-75 215c-11,33 5,67 36,77l5 1c31,10 66,-9 77,-42l74 -215c12,-33 -4,-67 -35,-76zm-6 2097l0 0 -5 1c-31,10 -66,-9 -77,-42l-74 -215c-12,-32 5,-67 36,-76l5 -2c31,-9 65,10 76,42l75 216c11,32 -5,66 -36,76zm-237 -467l0 0c-44,-12 -82,-39 -106,-75 -5,21 -4,43 1,66l45 189c17,72 82,123 156,130l-35 -102c-3,-9 -4,-19 -3,-29 -13,-15 -24,-34 -29,-57l-28 -114c0,-3 -1,-5 -1,-8zm183 126l0 0c14,9 24,21 30,37l32 93c37,-39 54,-94 41,-148l-45 -190c-21,-89 -116,-146 -212,-126 -12,2 -23,6 -34,10 15,80 135,80 157,174l28 115c3,12 4,24 3,35zm-218 -448l0 0c0,1 0,2 0,4 5,38 9,77 13,116 21,107 124,81 158,179 -19,8 -39,14 -60,16 0,0 0,0 0,0 -97,9 -183,-58 -193,-148 -7,-64 -13,-128 -20,-192 -2,-17 -1,-35 3,-51 22,35 57,62 99,76zm9 -195l0 0c14,-6 30,-9 46,-11 0,0 0,0 0,0 97,-9 183,58 193,148 7,64 13,128 20,192 2,14 1,28 -1,42 -24,-35 -60,-60 -102,-72 -4,-39 -8,-77 -12,-115 -11,-106 -134,-85 -144,-184zm8 -321l0 0c0,93 133,86 130,195 0,38 -1,75 -2,112 40,15 73,41 94,74 3,-10 4,-20 4,-30 1,-64 3,-127 4,-191 2,-91 -75,-167 -171,-169 0,0 0,0 0,0 -21,0 -41,3 -59,9zm-22 194l0 0c-40,-16 -73,-43 -93,-77 -3,11 -5,23 -5,36 -2,64 -3,128 -5,191 -2,91 76,167 172,169 0,0 0,0 0,0 25,0 50,-4 72,-13 -20,-97 -147,-71 -144,-191 1,-38 2,-77 3,-115zm59 -515l0 0c22,-6 47,-8 71,-4 0,0 0,0 0,0 96,13 163,97 150,187 -10,63 -19,127 -29,190 -1,6 -2,12 -4,18 -19,-33 -50,-60 -88,-76 6,-36 11,-72 17,-108 19,-125 -128,-107 -117,-207zm-36 194l0 0c-6,37 -11,72 -17,108 -17,115 122,115 130,204 -26,9 -55,12 -84,8 0,0 0,0 0,0 -96,-13 -163,-97 -149,-187 9,-64 19,-127 28,-191 2,-7 3,-14 5,-21 19,34 49,62 87,79zm81 -379l0 0c-11,13 -20,29 -26,48l-32 114c-36,125 116,114 115,215 -31,9 -64,10 -97,2 -94,-24 -150,-116 -125,-205l53 -187c20,-68 82,-115 152,-123l-37 108c-3,9 -4,19 -3,28zm189 -84l0 0c41,41 58,99 42,157l-53 187c-1,2 -1,3 -2,5 -17,-33 -46,-60 -81,-78l29 -102c3,-11 5,-23 5,-34 11,-8 21,-19 25,-33l35 -102z"/>
    <polygon class="fil4" points="4166,6234 4200,6234 4200,6235 4372,6235 4372,6234 4519,6234 4519,6235 4691,6235 4691,6234 4725,6234 4725,6235 4920,6235 4920,6263 3971,6263 3971,6235 4166,6235 "/>
    <path class="fil9" d="M4462 4685l113 0 150 1549 -34 0 -12 -127 -180 0 20 127 -147 0 21 -127 -181 0 -12 127 -34 0 151 -1549 112 0 33 0zm0 261l0 0 0 93 77 -41 -77 -52zm-33 92l0 0 0 -91 -74 51 74 40zm33 227l0 0 0 77 95 -31 -95 -46zm-33 77l0 0 0 -76 -92 45 92 31zm33 200l0 0 0 93 108 -52 -108 -41zm-33 92l0 0 0 -92 -106 41 106 51zm33 233l0 0 0 72 111 -43 -111 -29zm-33 71l0 0 0 -70 -109 28 109 42zm0 141l0 0 0 -92 -213 86 -1 6 214 0zm33 -92l0 0 0 92 214 0 0 -7 -214 -85zm-33 -157l0 0 0 -148 -184 91 -1 8 185 49zm33 -149l0 0 0 149 185 -49 0 -9 -185 -91zm-33 -180l0 0 0 -118 -151 50 -1 10 152 58zm33 -119l0 0 0 120 153 -58 -1 -11 -152 -51zm-33 -160l0 0 0 -136 -124 69 -1 6 125 61zm33 -137l0 0 0 138 125 -61 0 -8 -125 -69zm-33 -189l0 0 0 -128 -91 48 -2 18 93 62zm33 -128l0 0 0 129 94 -62 -2 -20 -92 -47zm-33 -42l0 0 0 -8 -17 0 17 8zm52 -8l0 0 -19 0 0 9 19 -9zm69 61l0 0 -6 -61 -18 0 -52 27 76 34zm21 211l0 0 -13 -130 -91 61 104 69zm12 131l0 0 -11 -115 -99 55 110 60zm18 185l0 0 -11 -117 -115 55 126 62zm10 96l0 0 -8 -77 -111 37 119 40zm17 175l0 0 -11 -107 -134 52 145 55zm15 158l0 0 -15 -150 -148 73 163 77zm15 156l0 0 -8 -81 -149 39 157 42zm14 141l0 0 -13 -136 -167 66 180 70zm-439 -137l0 0 -13 137 181 -70 -168 -67zm8 -86l0 0 -8 82 159 -42 -151 -40zm22 -225l0 0 -15 152 166 -78 -151 -74zm11 -114l0 0 -10 108 146 -56 -136 -52zm14 -145l0 0 -7 77 121 -40 -114 -37zm14 -137l0 0 -12 118 128 -62 -116 -56zm17 -182l0 0 -11 116 112 -61 -101 -55zm15 -147l0 0 -13 133 105 -71 -92 -62zm33 -141l0 0 -20 0 -6 62 79 -35 -53 -27z"/>
    <path class="fil4" d="M3656 6303l1170 0c-266,37 -261,115 -576,115 -315,0 -328,-78 -594,-115z"/>
    <path class="fil6" d="M5150 5440l13 195c-52,-10 -96,-30 -147,-54 -6,59 119,102 180,155l2 170 -145 168 61 68 71 -38 1 85c-18,18 -30,43 -36,73l38 10 207 1 -2 -23 -95 -1 28 -557 118 -128 -12 -72c-31,58 -65,88 -102,112 -12,-59 3,-107 33,-160 -75,-17 -109,-82 -70,-227l96 12 17 -112 -150 -5c-12,158 -2,269 16,367l2 54 -43 4c-44,-83 -51,-206 -65,-360l22 -57 -52 4 14 316z"/>
    <path class="fil5" d="M5079 4953c-14,16 -61,25 -61,-3 0,-14 -49,5 -52,5 -30,14 -110,-30 -135,-5 -11,11 -16,5 3,33 11,17 8,44 14,58 14,30 38,19 74,19 19,0 99,42 104,56 25,49 -71,33 -71,69 0,13 -36,52 -33,60 16,33 6,116 36,147 14,13 74,19 74,36 0,19 -25,33 -36,38 -11,6 -27,31 -36,28 -24,-8 -118,-94 -118,0 -11,11 -46,27 -46,41 0,55 71,39 85,69 16,33 104,-27 143,-27 2,0 30,-9 33,-9 5,-2 52,-2 55,-2 2,0 24,-3 46,-3 38,-20 61,-25 97,-25 38,0 99,-25 137,-25 14,0 55,8 63,11 3,0 50,25 50,25 38,0 69,-22 88,-50 3,-5 3,-58 0,-63 -6,-11 -19,-33 -11,-50 11,-22 3,-44 -11,-63 -6,-9 -74,-40 -83,-45 -8,-32 -19,-91 28,-102 33,-8 146,28 124,-41 -6,-19 -28,-42 -42,-55 -2,-3 -22,-20 -27,-14 -14,14 -19,5 -30,5 0,-11 -9,-80 -11,-88 -6,-14 -105,-61 -121,-61 -50,0 -168,58 -209,17 -11,-11 -31,-61 -58,-33 -6,5 -30,8 -41,19 -3,3 -22,28 -22,28z"/>
   </g>
  </g>
 </g>
</svg>
